<?xml version="1.0" standalone="no"?>
<!DOCTYPE svg PUBLIC "-//W3C//DTD SVG 20010904//EN"
 "http://www.w3.org/TR/2001/REC-SVG-20010904/DTD/svg10.dtd">
<svg version="1.0" xmlns="http://www.w3.org/2000/svg"
 width="400.000000pt" height="400.000000pt" viewBox="0 0 400.000000 400.000000"
 preserveAspectRatio="xMidYMid meet">
<metadata>
Created by potrace 1.14, written by Peter Selinger 2001-2017
</metadata>
<g transform="translate(0.000000,400.000000) scale(0.100000,-0.100000)"
fill="#000000" stroke="none">
<path d="M520 1976 c0 -1344 1 -1484 16 -1490 9 -3 679 -6 1490 -6 l1474 0 0
1490 0 1490 -1490 0 -1490 0 0 -1484z m2624 1118 c3 -9 6 -51 6 -94 0 -57 -4
-83 -15 -94 -9 -9 -15 -34 -15 -66 0 -32 -6 -57 -15 -66 -8 -9 -15 -33 -15
-55 0 -21 -4 -39 -10 -39 -7 0 -10 -311 -10 -912 0 -502 -3 -923 -6 -935 -4
-13 -10 -23 -15 -23 -5 0 -9 361 -9 840 0 740 -2 840 -15 840 -8 0 -15 -7 -15
-15 0 -8 -4 -15 -9 -15 -5 0 -11 -18 -15 -40 -3 -22 -11 -40 -16 -40 -6 0 -10
-11 -10 -25 0 -16 -6 -25 -15 -25 -13 0 -15 -89 -15 -745 l0 -745 -25 0 -25 0
0 659 c0 636 -2 692 -28 666 -4 -4 -8 -303 -10 -666 -3 -648 -3 -659 -22 -659
-20 0 -20 9 -20 595 0 522 -2 595 -15 595 -13 0 -15 -73 -15 -594 0 -327 -3
-601 -6 -610 -8 -20 -24 -21 -24 -1 0 8 -4 15 -10 15 -7 0 -10 183 -10 530 0
558 0 560 -43 510 -9 -11 -17 -25 -17 -30 0 -6 -7 -10 -15 -10 -9 0 -15 -9
-15 -24 0 -13 -6 -26 -12 -28 -10 -4 -14 -110 -16 -476 -2 -297 -6 -472 -12
-472 -6 0 -10 164 -10 445 0 389 -2 445 -15 445 -13 0 -15 -58 -15 -460 0
-253 -2 -460 -5 -460 -3 0 -14 9 -25 20 -19 19 -20 33 -20 398 0 207 -3 387
-6 400 -19 69 -24 -17 -24 -398 0 -381 -5 -467 -24 -397 -3 12 -6 183 -6 380
0 311 -2 357 -15 357 -8 0 -15 -7 -15 -15 0 -8 -5 -15 -11 -15 -13 0 -39 -25
-39 -38 0 -6 -7 -12 -15 -16 -13 -5 -15 -52 -15 -341 l0 -335 -25 0 -25 0 0
310 c0 269 -2 310 -15 310 -8 0 -15 -5 -15 -11 0 -11 -24 -39 -34 -39 -3 0
-15 -9 -26 -20 -19 -19 -20 -33 -20 -285 0 -240 -6 -307 -24 -242 -3 12 -6
127 -6 255 0 148 -4 232 -10 232 -6 0 -10 -84 -10 -232 0 -128 -3 -243 -6
-255 -7 -26 -39 -31 -48 -7 -3 9 -6 105 -6 215 0 170 -2 199 -15 199 -8 0 -15
-4 -15 -10 0 -5 -11 -12 -25 -16 l-25 -6 0 -184 c0 -157 -2 -184 -15 -184 -8
0 -15 -7 -15 -15 0 -8 -4 -15 -10 -15 -5 0 -10 7 -10 15 0 8 -7 15 -15 15 -13
0 -15 23 -15 150 0 96 -4 150 -10 150 -6 0 -13 -7 -16 -15 -4 -8 -17 -15 -30
-15 -15 0 -24 -6 -24 -15 0 -8 -9 -15 -20 -15 -11 0 -29 -9 -40 -20 -17 -17
-20 -33 -20 -120 0 -82 -3 -100 -15 -100 -12 0 -15 17 -15 90 0 89 0 90 -25
90 -25 0 -25 -1 -25 -82 0 -88 -7 -128 -21 -128 -5 0 -9 43 -9 95 0 78 -3 95
-15 95 -8 0 -15 -7 -15 -15 0 -8 -7 -15 -15 -15 -12 0 -15 -14 -15 -65 0 -63
-1 -65 -25 -65 -16 0 -25 -6 -25 -15 0 -9 -9 -15 -24 -15 -26 0 -36 21 -36 78
0 17 -4 32 -10 32 -5 0 -10 -18 -10 -40 0 -29 -4 -40 -15 -40 -9 0 -15 9 -15
25 0 23 -3 25 -49 25 -34 0 -51 -4 -55 -15 -3 -10 -19 -15 -46 -15 -22 0 -40
-4 -40 -9 0 -4 -30 -11 -67 -14 -37 -3 -69 -10 -71 -16 -2 -7 -41 -11 -108
-11 l-104 0 0 1150 0 1150 1134 0 c1025 0 1134 -2 1140 -16z"/>
</g>
</svg>
